<mxfile host="app.diagrams.net" modified="2021-03-23T15:56:40.083Z" agent="5.0 (Windows)" etag="R37aEe2LFhdfetCr5XHT" version="14.5.0" type="github">
  <diagram name="Page-1" id="bfe91b75-5d2c-26a0-9c1d-138518896778">
    <mxGraphModel dx="986" dy="725" grid="1" gridSize="10" guides="1" tooltips="1" connect="1" arrows="1" fold="1" page="1" pageScale="1" pageWidth="1100" pageHeight="850" background="#ffffff" math="0" shadow="0">
      <root>
        <mxCell id="0" />
        <mxCell id="1" parent="0" />
        <mxCell id="kBP0Oe7k8TxSiVuU12CA-8" value="" style="rounded=0;whiteSpace=wrap;html=1;" vertex="1" parent="1">
          <mxGeometry x="470" y="130" width="160" height="280" as="geometry" />
        </mxCell>
        <mxCell id="7c3789c024ecab99-78" value="c" style="rounded=1;whiteSpace=wrap;html=1;shadow=0;comic=0;strokeColor=#036897;strokeWidth=2;fillColor=none;fontFamily=Verdana;fontSize=28;fontColor=#6881B3;align=center;arcSize=11;verticalAlign=top;" parent="1" vertex="1">
          <mxGeometry x="100" y="30" width="1065" height="520" as="geometry" />
        </mxCell>
        <mxCell id="7c3789c024ecab99-55" style="edgeStyle=none;html=1;labelBackgroundColor=none;endArrow=none;endFill=0;strokeWidth=2;fontFamily=Verdana;fontSize=28;fontColor=#6881B3;" parent="1" source="7c3789c024ecab99-8" target="7c3789c024ecab99-54" edge="1">
          <mxGeometry relative="1" as="geometry">
            <mxPoint x="1660" y="837.0000000000002" as="targetPoint" />
          </mxGeometry>
        </mxCell>
        <mxCell id="7c3789c024ecab99-8" value="" style="fontColor=#0066CC;verticalAlign=top;verticalLabelPosition=bottom;labelPosition=center;align=center;html=1;fillColor=#CCCCCC;strokeColor=#6881B3;gradientColor=none;gradientDirection=north;strokeWidth=2;shape=mxgraph.networks.firewall;rounded=0;shadow=0;comic=0;" parent="1" vertex="1">
          <mxGeometry x="1490" y="847" width="100" height="100" as="geometry" />
        </mxCell>
        <mxCell id="7c3789c024ecab99-2" value="PROKEE Encoder" style="fontColor=#0066CC;verticalAlign=top;verticalLabelPosition=bottom;labelPosition=center;align=center;html=1;fillColor=#CCCCCC;strokeColor=#6881B3;gradientColor=none;gradientDirection=north;strokeWidth=2;shape=mxgraph.networks.pc;rounded=0;shadow=0;comic=0;" parent="1" vertex="1">
          <mxGeometry x="340.0000000000003" y="85" width="100" height="70" as="geometry" />
        </mxCell>
        <mxCell id="7c3789c024ecab99-31" value="" style="html=1;fillColor=#CCCCCC;strokeColor=#6881B3;gradientColor=none;gradientDirection=north;strokeWidth=2;shape=mxgraph.networks.comm_link_edge;html=1;labelBackgroundColor=none;endArrow=none;endFill=0;fontFamily=Verdana;fontSize=20;" parent="1" edge="1">
          <mxGeometry width="100" height="100" relative="1" as="geometry">
            <mxPoint x="1280" y="130" as="sourcePoint" />
            <mxPoint x="1240" y="470" as="targetPoint" />
            <Array as="points">
              <mxPoint x="1330" y="300" />
            </Array>
          </mxGeometry>
        </mxCell>
        <mxCell id="7c3789c024ecab99-53" value="Internet" style="html=1;fillColor=#CCCCCC;strokeColor=#6881B3;gradientColor=none;gradientDirection=north;strokeWidth=2;shape=mxgraph.networks.cloud;fontColor=#6881B3;rounded=0;shadow=0;comic=0;align=center;fontSize=28;" parent="1" vertex="1">
          <mxGeometry x="1760" y="689" width="330" height="140" as="geometry" />
        </mxCell>
        <mxCell id="7c3789c024ecab99-56" style="edgeStyle=none;html=1;labelBackgroundColor=none;endArrow=none;endFill=0;strokeWidth=2;fontFamily=Verdana;fontSize=28;fontColor=#6881B3;" parent="1" source="7c3789c024ecab99-54" target="7c3789c024ecab99-53" edge="1">
          <mxGeometry relative="1" as="geometry" />
        </mxCell>
        <mxCell id="7c3789c024ecab99-77" style="edgeStyle=none;html=1;labelBackgroundColor=none;endArrow=none;endFill=0;strokeWidth=2;fontFamily=Verdana;fontSize=28;fontColor=#6881B3;" parent="1" source="7c3789c024ecab99-54" target="7c3789c024ecab99-76" edge="1">
          <mxGeometry relative="1" as="geometry" />
        </mxCell>
        <mxCell id="7c3789c024ecab99-54" value="" style="fontColor=#0066CC;verticalAlign=top;verticalLabelPosition=bottom;labelPosition=center;align=center;html=1;fillColor=#CCCCCC;strokeColor=#6881B3;gradientColor=none;gradientDirection=north;strokeWidth=2;shape=mxgraph.networks.router;rounded=0;shadow=0;comic=0;" parent="1" vertex="1">
          <mxGeometry x="1640" y="882" width="100" height="30" as="geometry" />
        </mxCell>
        <mxCell id="7c3789c024ecab99-60" style="edgeStyle=none;html=1;labelBackgroundColor=none;endArrow=none;endFill=0;strokeWidth=2;fontFamily=Verdana;fontSize=28;fontColor=#6881B3;" parent="1" source="7c3789c024ecab99-57" target="7c3789c024ecab99-54" edge="1">
          <mxGeometry relative="1" as="geometry" />
        </mxCell>
        <mxCell id="7c3789c024ecab99-57" value="" style="fontColor=#0066CC;verticalAlign=top;verticalLabelPosition=bottom;labelPosition=center;align=center;html=1;fillColor=#CCCCCC;strokeColor=#6881B3;gradientColor=none;gradientDirection=north;strokeWidth=2;shape=mxgraph.networks.storage;rounded=0;shadow=0;comic=0;" parent="1" vertex="1">
          <mxGeometry x="1510" y="1079" width="100" height="100" as="geometry" />
        </mxCell>
        <mxCell id="7c3789c024ecab99-59" style="edgeStyle=none;html=1;labelBackgroundColor=none;endArrow=none;endFill=0;strokeWidth=2;fontFamily=Verdana;fontSize=28;fontColor=#6881B3;" parent="1" source="7c3789c024ecab99-58" target="7c3789c024ecab99-54" edge="1">
          <mxGeometry relative="1" as="geometry">
            <mxPoint x="1570" y="827" as="targetPoint" />
          </mxGeometry>
        </mxCell>
        <mxCell id="7c3789c024ecab99-58" value="" style="fontColor=#0066CC;verticalAlign=top;verticalLabelPosition=bottom;labelPosition=center;align=center;html=1;fillColor=#CCCCCC;strokeColor=#6881B3;gradientColor=none;gradientDirection=north;strokeWidth=2;shape=mxgraph.networks.server_storage;rounded=0;shadow=0;comic=0;" parent="1" vertex="1">
          <mxGeometry x="1540" y="605" width="105" height="105" as="geometry" />
        </mxCell>
        <mxCell id="7c3789c024ecab99-76" value="Campus 2" style="html=1;fillColor=#CCCCCC;strokeColor=#6881B3;gradientColor=none;gradientDirection=north;strokeWidth=2;shape=mxgraph.networks.cloud;fontColor=#6881B3;rounded=0;shadow=0;comic=0;align=center;fontSize=28;" parent="1" vertex="1">
          <mxGeometry x="1740" y="1044" width="330" height="140" as="geometry" />
        </mxCell>
        <mxCell id="kBP0Oe7k8TxSiVuU12CA-2" value="" style="fontColor=#0066CC;verticalAlign=top;verticalLabelPosition=bottom;labelPosition=center;align=center;html=1;outlineConnect=0;fillColor=#CCCCCC;strokeColor=#6881B3;gradientColor=none;gradientDirection=north;strokeWidth=2;shape=mxgraph.networks.switch;" vertex="1" parent="1">
          <mxGeometry x="780" y="95" width="100" height="30" as="geometry" />
        </mxCell>
        <mxCell id="kBP0Oe7k8TxSiVuU12CA-3" value="FMU A" style="fontColor=#0066CC;verticalAlign=top;verticalLabelPosition=bottom;labelPosition=center;align=center;html=1;outlineConnect=0;fillColor=#CCCCCC;strokeColor=#6881B3;gradientColor=none;gradientDirection=north;strokeWidth=2;shape=mxgraph.networks.desktop_pc;" vertex="1" parent="1">
          <mxGeometry x="520" y="234" width="30" height="60" as="geometry" />
        </mxCell>
        <mxCell id="kBP0Oe7k8TxSiVuU12CA-18" value="" style="endArrow=none;html=1;exitX=1;exitY=0.343;exitDx=0;exitDy=0;exitPerimeter=0;entryX=0;entryY=0.5;entryDx=0;entryDy=0;entryPerimeter=0;strokeWidth=2;" edge="1" parent="1" source="7c3789c024ecab99-2" target="kBP0Oe7k8TxSiVuU12CA-2">
          <mxGeometry width="50" height="50" relative="1" as="geometry">
            <mxPoint x="440" y="260" as="sourcePoint" />
            <mxPoint x="490" y="210" as="targetPoint" />
          </mxGeometry>
        </mxCell>
        <mxCell id="kBP0Oe7k8TxSiVuU12CA-20" value="Pump 1A" style="shape=mxgraph.signs.transportation.gas_1;html=1;pointerEvents=1;fillColor=#000000;strokeColor=none;verticalLabelPosition=bottom;verticalAlign=top;align=center;" vertex="1" parent="1">
          <mxGeometry x="580" y="160" width="31" height="38" as="geometry" />
        </mxCell>
        <mxCell id="kBP0Oe7k8TxSiVuU12CA-27" value="Pump 2A" style="shape=mxgraph.signs.transportation.gas_1;html=1;pointerEvents=1;fillColor=#000000;strokeColor=none;verticalLabelPosition=bottom;verticalAlign=top;align=center;" vertex="1" parent="1">
          <mxGeometry x="570" y="326" width="31" height="38" as="geometry" />
        </mxCell>
        <mxCell id="kBP0Oe7k8TxSiVuU12CA-35" value="&lt;div&gt;Pump 2A&lt;br&gt;&lt;/div&gt;&lt;div&gt;Relay&lt;br&gt;&lt;/div&gt;" style="shape=image;html=1;verticalLabelPosition=bottom;verticalAlign=top;imageAspect=0;image=img/clipart/Gear_128x128.png;direction=west;" vertex="1" parent="1">
          <mxGeometry x="500" y="330" width="25.5" height="30" as="geometry" />
        </mxCell>
        <mxCell id="kBP0Oe7k8TxSiVuU12CA-46" value="" style="group" vertex="1" connectable="0" parent="1">
          <mxGeometry x="330" y="210" width="50" height="158" as="geometry" />
        </mxCell>
        <object label="Tank A" Tank1="" id="kBP0Oe7k8TxSiVuU12CA-7">
          <mxCell style="shape=mxgraph.pid.vessels.tank;html=1;pointerEvents=1;align=center;verticalLabelPosition=bottom;verticalAlign=top;dashed=0;" vertex="1" parent="kBP0Oe7k8TxSiVuU12CA-46">
            <mxGeometry width="50" height="158" as="geometry" />
          </mxCell>
        </object>
        <mxCell id="kBP0Oe7k8TxSiVuU12CA-43" value="" style="group" vertex="1" connectable="0" parent="kBP0Oe7k8TxSiVuU12CA-46">
          <mxGeometry y="18" width="50" height="90" as="geometry" />
        </mxCell>
        <mxCell id="kBP0Oe7k8TxSiVuU12CA-31" value="RS 232" style="pointerEvents=1;verticalLabelPosition=bottom;shadow=0;dashed=0;align=center;html=1;verticalAlign=top;shape=mxgraph.electrical.miscellaneous.small_d_connector" vertex="1" parent="kBP0Oe7k8TxSiVuU12CA-43">
          <mxGeometry y="70" width="50" height="20" as="geometry" />
        </mxCell>
        <mxCell id="kBP0Oe7k8TxSiVuU12CA-42" value="&lt;div&gt;Tank&lt;/div&gt;&lt;div&gt;Monitor&lt;/div&gt;&lt;div&gt;Unit&lt;/div&gt;&lt;div&gt;Interface&lt;/div&gt;" style="text;html=1;strokeColor=none;fillColor=none;align=center;verticalAlign=middle;whiteSpace=wrap;rounded=0;" vertex="1" parent="kBP0Oe7k8TxSiVuU12CA-43">
          <mxGeometry width="50" height="70" as="geometry" />
        </mxCell>
        <mxCell id="kBP0Oe7k8TxSiVuU12CA-52" value="Employee" style="pointerEvents=1;shadow=0;dashed=0;html=1;strokeColor=none;fillColor=#505050;labelPosition=center;verticalLabelPosition=bottom;verticalAlign=top;outlineConnect=0;align=center;shape=mxgraph.office.users.user;rotation=0;" vertex="1" parent="1">
          <mxGeometry x="495.5" y="439" width="30" height="36" as="geometry" />
        </mxCell>
        <mxCell id="kBP0Oe7k8TxSiVuU12CA-54" value="&lt;div&gt;Pump 1A&lt;br&gt;&lt;/div&gt;&lt;div&gt;Relay&lt;br&gt;&lt;/div&gt;" style="shape=image;html=1;verticalLabelPosition=bottom;verticalAlign=top;imageAspect=0;image=img/clipart/Gear_128x128.png;direction=west;" vertex="1" parent="1">
          <mxGeometry x="500" y="164" width="25.5" height="30" as="geometry" />
        </mxCell>
        <mxCell id="7c3789c024ecab99-19" style="edgeStyle=none;html=1;labelBackgroundColor=none;endArrow=none;endFill=0;strokeWidth=2;fontFamily=Verdana;fontSize=15;fontColor=#036897;exitX=0;exitY=0.5;exitDx=0;exitDy=0;entryX=0.095;entryY=0.5;entryDx=0;entryDy=0;entryPerimeter=0;" parent="1" source="kBP0Oe7k8TxSiVuU12CA-54" target="kBP0Oe7k8TxSiVuU12CA-20" edge="1">
          <mxGeometry relative="1" as="geometry">
            <mxPoint x="825.5" y="169.99814814814806" as="targetPoint" />
            <mxPoint x="745.5" y="200" as="sourcePoint" />
          </mxGeometry>
        </mxCell>
        <mxCell id="7c3789c024ecab99-22" style="edgeStyle=none;html=1;labelBackgroundColor=none;endArrow=none;endFill=0;strokeWidth=2;fontFamily=Verdana;fontSize=15;fontColor=#036897;entryX=0.095;entryY=0.5;entryDx=0;entryDy=0;entryPerimeter=0;exitX=0;exitY=0.5;exitDx=0;exitDy=0;" parent="1" source="kBP0Oe7k8TxSiVuU12CA-35" target="kBP0Oe7k8TxSiVuU12CA-27" edge="1">
          <mxGeometry relative="1" as="geometry">
            <mxPoint x="750" y="320" as="sourcePoint" />
            <mxPoint x="800" y="319.99928571428575" as="targetPoint" />
          </mxGeometry>
        </mxCell>
        <mxCell id="kBP0Oe7k8TxSiVuU12CA-74" value="" style="endArrow=classic;html=1;strokeWidth=2;entryX=0.98;entryY=0.02;entryDx=0;entryDy=0;entryPerimeter=0;" edge="1" parent="1" source="kBP0Oe7k8TxSiVuU12CA-20" target="kBP0Oe7k8TxSiVuU12CA-3">
          <mxGeometry width="50" height="50" relative="1" as="geometry">
            <mxPoint x="520" y="390" as="sourcePoint" />
            <mxPoint x="570" y="340" as="targetPoint" />
          </mxGeometry>
        </mxCell>
        <mxCell id="kBP0Oe7k8TxSiVuU12CA-75" value="" style="endArrow=classic;html=1;strokeWidth=2;exitX=0.41;exitY=0;exitDx=0;exitDy=0;exitPerimeter=0;entryX=0.98;entryY=0.98;entryDx=0;entryDy=0;entryPerimeter=0;" edge="1" parent="1" source="kBP0Oe7k8TxSiVuU12CA-27" target="kBP0Oe7k8TxSiVuU12CA-3">
          <mxGeometry width="50" height="50" relative="1" as="geometry">
            <mxPoint x="520" y="390" as="sourcePoint" />
            <mxPoint x="570" y="340" as="targetPoint" />
          </mxGeometry>
        </mxCell>
        <mxCell id="kBP0Oe7k8TxSiVuU12CA-80" value="" style="endArrow=classic;html=1;strokeWidth=2;exitX=1;exitY=0.5;exitDx=0;exitDy=0;" edge="1" parent="1">
          <mxGeometry relative="1" as="geometry">
            <mxPoint x="380" y="264" as="sourcePoint" />
            <mxPoint x="520" y="265" as="targetPoint" />
            <Array as="points">
              <mxPoint x="440" y="265" />
            </Array>
          </mxGeometry>
        </mxCell>
        <mxCell id="kBP0Oe7k8TxSiVuU12CA-81" value="Serial Comm" style="edgeLabel;resizable=0;html=1;align=center;verticalAlign=middle;" connectable="0" vertex="1" parent="kBP0Oe7k8TxSiVuU12CA-80">
          <mxGeometry relative="1" as="geometry" />
        </mxCell>
        <mxCell id="kBP0Oe7k8TxSiVuU12CA-83" value="" style="group;imageWidth=24;" vertex="1" connectable="0" parent="1">
          <mxGeometry x="540" y="420" width="99" height="74" as="geometry" />
        </mxCell>
        <mxCell id="kBP0Oe7k8TxSiVuU12CA-34" value="" style="shape=mxgraph.signs.transportation.truck_1;html=1;pointerEvents=1;fillColor=#000000;strokeColor=none;verticalLabelPosition=bottom;verticalAlign=top;align=center;rotation=0;" vertex="1" parent="kBP0Oe7k8TxSiVuU12CA-83">
          <mxGeometry y="23" width="99" height="51" as="geometry" />
        </mxCell>
        <mxCell id="kBP0Oe7k8TxSiVuU12CA-36" value="&lt;div&gt;Aim&lt;/div&gt;" style="image;html=1;image=img/lib/clip_art/telecommunication/Signal_tower_on_128x128.png;rotation=0;" vertex="1" parent="kBP0Oe7k8TxSiVuU12CA-83">
          <mxGeometry width="30" height="30" as="geometry" />
        </mxCell>
      </root>
    </mxGraphModel>
  </diagram>
</mxfile>
